<mxfile host="65bd71144e">
    <diagram id="fy5MCX9s85HruKOtmUZA" name="class-diagram">
        <mxGraphModel dx="878" dy="429" grid="1" gridSize="10" guides="1" tooltips="1" connect="1" arrows="1" fold="1" page="1" pageScale="1" pageWidth="827" pageHeight="1169" math="0" shadow="0">
            <root>
                <mxCell id="0"/>
                <mxCell id="1" parent="0"/>
                <mxCell id="14" value="&amp;lt;&amp;lt;interface&amp;gt;&amp;gt;&lt;br&gt;&lt;b&gt;Coffee&lt;/b&gt;" style="swimlane;fontStyle=0;align=center;verticalAlign=top;childLayout=stackLayout;horizontal=1;startSize=40;horizontalStack=0;resizeParent=1;resizeParentMax=0;resizeLast=0;collapsible=0;marginBottom=0;html=1;whiteSpace=wrap;movable=1;resizable=1;rotatable=1;deletable=1;editable=1;locked=0;connectable=1;fillColor=#dae8fc;strokeColor=#6c8ebf;" parent="1" vertex="1">
                    <mxGeometry x="200" y="40" width="200" height="168" as="geometry"/>
                </mxCell>
                <mxCell id="66" value="+ counter=0 : static id" style="text;html=1;strokeColor=none;fillColor=none;align=left;verticalAlign=middle;spacingLeft=4;spacingRight=4;overflow=hidden;rotatable=0;points=[[0,0.5],[1,0.5]];portConstraint=eastwest;whiteSpace=wrap;" parent="14" vertex="1">
                    <mxGeometry y="40" width="200" height="20" as="geometry"/>
                </mxCell>
                <mxCell id="67" value="+ id : int" style="text;html=1;strokeColor=none;fillColor=none;align=left;verticalAlign=middle;spacingLeft=4;spacingRight=4;overflow=hidden;rotatable=0;points=[[0,0.5],[1,0.5]];portConstraint=eastwest;whiteSpace=wrap;" parent="14" vertex="1">
                    <mxGeometry y="60" width="200" height="20" as="geometry"/>
                </mxCell>
                <mxCell id="19" value="" style="line;strokeWidth=1;fillColor=none;align=left;verticalAlign=middle;spacingTop=-1;spacingLeft=3;spacingRight=3;rotatable=0;labelPosition=right;points=[];portConstraint=eastwest;" parent="14" vertex="1">
                    <mxGeometry y="80" width="200" height="8" as="geometry"/>
                </mxCell>
                <mxCell id="68" value="+ Coffee( void ) : Coffee" style="text;html=1;strokeColor=none;fillColor=none;align=left;verticalAlign=middle;spacingLeft=4;spacingRight=4;overflow=hidden;rotatable=0;points=[[0,0.5],[1,0.5]];portConstraint=eastwest;whiteSpace=wrap;" parent="14" vertex="1">
                    <mxGeometry y="88" width="200" height="20" as="geometry"/>
                </mxCell>
                <mxCell id="21" value="+ getDiscription() : string" style="text;html=1;strokeColor=none;fillColor=none;align=left;verticalAlign=middle;spacingLeft=4;spacingRight=4;overflow=hidden;rotatable=0;points=[[0,0.5],[1,0.5]];portConstraint=eastwest;whiteSpace=wrap;" parent="14" vertex="1">
                    <mxGeometry y="108" width="200" height="20" as="geometry"/>
                </mxCell>
                <mxCell id="22" value="+ getCost() : double" style="text;html=1;strokeColor=none;fillColor=none;align=left;verticalAlign=middle;spacingLeft=4;spacingRight=4;overflow=hidden;rotatable=0;points=[[0,0.5],[1,0.5]];portConstraint=eastwest;whiteSpace=wrap;" parent="14" vertex="1">
                    <mxGeometry y="128" width="200" height="20" as="geometry"/>
                </mxCell>
                <mxCell id="70" value="+ ~Coffee( void ) : void" style="text;html=1;strokeColor=none;fillColor=none;align=left;verticalAlign=middle;spacingLeft=4;spacingRight=4;overflow=hidden;rotatable=0;points=[[0,0.5],[1,0.5]];portConstraint=eastwest;whiteSpace=wrap;" parent="14" vertex="1">
                    <mxGeometry y="148" width="200" height="20" as="geometry"/>
                </mxCell>
                <mxCell id="23" value="&amp;lt;&amp;lt;basic&amp;gt;&amp;gt;&lt;br&gt;&lt;b&gt;PlainCoffee&lt;/b&gt;" style="swimlane;fontStyle=0;align=center;verticalAlign=top;childLayout=stackLayout;horizontal=1;startSize=40;horizontalStack=0;resizeParent=1;resizeParentMax=0;resizeLast=0;collapsible=0;marginBottom=0;html=1;whiteSpace=wrap;fillColor=#dae8fc;strokeColor=#6c8ebf;" parent="1" vertex="1">
                    <mxGeometry x="40" y="320" width="240" height="128" as="geometry"/>
                </mxCell>
                <mxCell id="28" value="" style="line;strokeWidth=1;fillColor=none;align=left;verticalAlign=middle;spacingTop=-1;spacingLeft=3;spacingRight=3;rotatable=0;labelPosition=right;points=[];portConstraint=eastwest;" parent="23" vertex="1">
                    <mxGeometry y="40" width="240" height="8" as="geometry"/>
                </mxCell>
                <mxCell id="71" value="+ PlainCoffee( void ) :&amp;nbsp;Coffee*" style="text;html=1;strokeColor=none;fillColor=none;align=left;verticalAlign=middle;spacingLeft=4;spacingRight=4;overflow=hidden;rotatable=0;points=[[0,0.5],[1,0.5]];portConstraint=eastwest;whiteSpace=wrap;" parent="23" vertex="1">
                    <mxGeometry y="48" width="240" height="20" as="geometry"/>
                </mxCell>
                <mxCell id="30" value="+ getDiscription() : string" style="text;html=1;strokeColor=none;fillColor=none;align=left;verticalAlign=middle;spacingLeft=4;spacingRight=4;overflow=hidden;rotatable=0;points=[[0,0.5],[1,0.5]];portConstraint=eastwest;whiteSpace=wrap;" parent="23" vertex="1">
                    <mxGeometry y="68" width="240" height="20" as="geometry"/>
                </mxCell>
                <mxCell id="64" value="+ getCost() : double" style="text;html=1;strokeColor=none;fillColor=none;align=left;verticalAlign=middle;spacingLeft=4;spacingRight=4;overflow=hidden;rotatable=0;points=[[0,0.5],[1,0.5]];portConstraint=eastwest;whiteSpace=wrap;" parent="23" vertex="1">
                    <mxGeometry y="88" width="240" height="20" as="geometry"/>
                </mxCell>
                <mxCell id="72" value="+ ~&lt;span style=&quot;color: rgb(0, 0, 0);&quot;&gt;Plain&lt;/span&gt;Coffee( void ) : void" style="text;html=1;strokeColor=none;fillColor=none;align=left;verticalAlign=middle;spacingLeft=4;spacingRight=4;overflow=hidden;rotatable=0;points=[[0,0.5],[1,0.5]];portConstraint=eastwest;whiteSpace=wrap;" parent="23" vertex="1">
                    <mxGeometry y="108" width="240" height="20" as="geometry"/>
                </mxCell>
                <mxCell id="35" value="&amp;lt;&amp;lt;ConcreteDecorator&amp;gt;&amp;gt;&lt;br&gt;&lt;b&gt;MilkDecorator&lt;/b&gt;" style="swimlane;fontStyle=0;align=center;verticalAlign=top;childLayout=stackLayout;horizontal=1;startSize=40;horizontalStack=0;resizeParent=1;resizeParentMax=0;resizeLast=0;collapsible=0;marginBottom=0;html=1;whiteSpace=wrap;fillColor=#fff2cc;strokeColor=#d6b656;" parent="1" vertex="1">
                    <mxGeometry x="120" y="560" width="360" height="148" as="geometry"/>
                </mxCell>
                <mxCell id="80" value="+ milk_amount : double" style="text;html=1;strokeColor=none;fillColor=none;align=left;verticalAlign=middle;spacingLeft=4;spacingRight=4;overflow=hidden;rotatable=0;points=[[0,0.5],[1,0.5]];portConstraint=eastwest;whiteSpace=wrap;" parent="35" vertex="1">
                    <mxGeometry y="40" width="360" height="20" as="geometry"/>
                </mxCell>
                <mxCell id="37" value="" style="line;strokeWidth=1;fillColor=none;align=left;verticalAlign=middle;spacingTop=-1;spacingLeft=3;spacingRight=3;rotatable=0;labelPosition=right;points=[];portConstraint=eastwest;" parent="35" vertex="1">
                    <mxGeometry y="60" width="360" height="8" as="geometry"/>
                </mxCell>
                <mxCell id="76" value="+ CoffeDecorator(&amp;nbsp;&lt;span style=&quot;color: rgb(0, 0, 0);&quot;&gt;unique_ptr&amp;lt;Coffee&amp;gt;&lt;/span&gt;&amp;nbsp;) :&amp;nbsp;&lt;span style=&quot;color: rgb(0, 0, 0);&quot;&gt;&amp;nbsp;Coffee*&lt;/span&gt;&amp;nbsp;" style="text;html=1;strokeColor=none;fillColor=none;align=left;verticalAlign=middle;spacingLeft=4;spacingRight=4;overflow=hidden;rotatable=0;points=[[0,0.5],[1,0.5]];portConstraint=eastwest;whiteSpace=wrap;" parent="35" vertex="1">
                    <mxGeometry y="68" width="360" height="20" as="geometry"/>
                </mxCell>
                <mxCell id="38" value="+ getDiscription() : string" style="text;html=1;strokeColor=none;fillColor=none;align=left;verticalAlign=middle;spacingLeft=4;spacingRight=4;overflow=hidden;rotatable=0;points=[[0,0.5],[1,0.5]];portConstraint=eastwest;whiteSpace=wrap;" parent="35" vertex="1">
                    <mxGeometry y="88" width="360" height="20" as="geometry"/>
                </mxCell>
                <mxCell id="40" value="+ getCost() : double" style="text;html=1;strokeColor=none;fillColor=none;align=left;verticalAlign=middle;spacingLeft=4;spacingRight=4;overflow=hidden;rotatable=0;points=[[0,0.5],[1,0.5]];portConstraint=eastwest;whiteSpace=wrap;" parent="35" vertex="1">
                    <mxGeometry y="108" width="360" height="20" as="geometry"/>
                </mxCell>
                <mxCell id="77" value="+ ~CoffeDecorator( void&amp;nbsp;) : void&amp;nbsp;" style="text;html=1;strokeColor=none;fillColor=none;align=left;verticalAlign=middle;spacingLeft=4;spacingRight=4;overflow=hidden;rotatable=0;points=[[0,0.5],[1,0.5]];portConstraint=eastwest;whiteSpace=wrap;" parent="35" vertex="1">
                    <mxGeometry y="128" width="360" height="20" as="geometry"/>
                </mxCell>
                <mxCell id="59" style="edgeStyle=orthogonalEdgeStyle;html=1;entryX=0.5;entryY=1;entryDx=0;entryDy=0;endArrow=block;endFill=0;" parent="1" source="41" target="14" edge="1">
                    <mxGeometry relative="1" as="geometry"/>
                </mxCell>
                <mxCell id="61" style="edgeStyle=orthogonalEdgeStyle;html=1;exitX=0.5;exitY=0;exitDx=0;exitDy=0;endArrow=block;endFill=0;" parent="1" source="35" target="41" edge="1">
                    <mxGeometry relative="1" as="geometry"/>
                </mxCell>
                <mxCell id="41" value="&amp;lt;&amp;lt;abstract&amp;gt;&amp;gt;&lt;br&gt;&lt;b&gt;CoffeeDecorator&lt;/b&gt;" style="swimlane;fontStyle=0;align=center;verticalAlign=top;childLayout=stackLayout;horizontal=1;startSize=40;horizontalStack=0;resizeParent=1;resizeParentMax=0;resizeLast=0;collapsible=0;marginBottom=0;html=1;whiteSpace=wrap;fillColor=#dae8fc;strokeColor=#6c8ebf;" parent="1" vertex="1">
                    <mxGeometry x="320" y="320" width="360" height="148" as="geometry"/>
                </mxCell>
                <mxCell id="65" value="# coffee : unique_ptr&amp;lt;Coffee&amp;gt;&amp;nbsp;" style="text;html=1;strokeColor=none;fillColor=none;align=left;verticalAlign=middle;spacingLeft=4;spacingRight=4;overflow=hidden;rotatable=0;points=[[0,0.5],[1,0.5]];portConstraint=eastwest;whiteSpace=wrap;" parent="41" vertex="1">
                    <mxGeometry y="40" width="360" height="20" as="geometry"/>
                </mxCell>
                <mxCell id="44" value="" style="line;strokeWidth=1;fillColor=none;align=left;verticalAlign=middle;spacingTop=-1;spacingLeft=3;spacingRight=3;rotatable=0;labelPosition=right;points=[];portConstraint=eastwest;" parent="41" vertex="1">
                    <mxGeometry y="60" width="360" height="8" as="geometry"/>
                </mxCell>
                <mxCell id="73" value="+ CoffeDecorator(&amp;nbsp;&lt;span style=&quot;color: rgb(0, 0, 0);&quot;&gt;unique_ptr&amp;lt;Coffee&amp;gt;&lt;/span&gt;&amp;nbsp;) :&amp;nbsp;&lt;span style=&quot;color: rgb(0, 0, 0);&quot;&gt;&amp;nbsp;Coffee*&lt;/span&gt;&amp;nbsp;" style="text;html=1;strokeColor=none;fillColor=none;align=left;verticalAlign=middle;spacingLeft=4;spacingRight=4;overflow=hidden;rotatable=0;points=[[0,0.5],[1,0.5]];portConstraint=eastwest;whiteSpace=wrap;" parent="41" vertex="1">
                    <mxGeometry y="68" width="360" height="20" as="geometry"/>
                </mxCell>
                <mxCell id="45" value="+ getDiscription() : string" style="text;html=1;strokeColor=none;fillColor=none;align=left;verticalAlign=middle;spacingLeft=4;spacingRight=4;overflow=hidden;rotatable=0;points=[[0,0.5],[1,0.5]];portConstraint=eastwest;whiteSpace=wrap;" parent="41" vertex="1">
                    <mxGeometry y="88" width="360" height="20" as="geometry"/>
                </mxCell>
                <mxCell id="46" value="+ getCost() : double" style="text;html=1;strokeColor=none;fillColor=none;align=left;verticalAlign=middle;spacingLeft=4;spacingRight=4;overflow=hidden;rotatable=0;points=[[0,0.5],[1,0.5]];portConstraint=eastwest;whiteSpace=wrap;" parent="41" vertex="1">
                    <mxGeometry y="108" width="360" height="20" as="geometry"/>
                </mxCell>
                <mxCell id="74" value="+ ~CoffeDecorator( void&amp;nbsp;) : void&amp;nbsp;" style="text;html=1;strokeColor=none;fillColor=none;align=left;verticalAlign=middle;spacingLeft=4;spacingRight=4;overflow=hidden;rotatable=0;points=[[0,0.5],[1,0.5]];portConstraint=eastwest;whiteSpace=wrap;" parent="41" vertex="1">
                    <mxGeometry y="128" width="360" height="20" as="geometry"/>
                </mxCell>
                <mxCell id="63" style="edgeStyle=orthogonalEdgeStyle;html=1;entryX=0.5;entryY=1;entryDx=0;entryDy=0;endArrow=block;endFill=0;" parent="1" source="47" target="41" edge="1">
                    <mxGeometry relative="1" as="geometry"/>
                </mxCell>
                <mxCell id="47" value="&amp;lt;&amp;lt;&lt;span style=&quot;color: rgb(0, 0, 0);&quot;&gt;ConcreteDecorator&lt;/span&gt;&amp;gt;&amp;gt;&lt;br&gt;&lt;b&gt;SugarDecorator&lt;/b&gt;" style="swimlane;fontStyle=0;align=center;verticalAlign=top;childLayout=stackLayout;horizontal=1;startSize=40;horizontalStack=0;resizeParent=1;resizeParentMax=0;resizeLast=0;collapsible=0;marginBottom=0;html=1;whiteSpace=wrap;fillColor=#fff2cc;strokeColor=#d6b656;" parent="1" vertex="1">
                    <mxGeometry x="520" y="560" width="360" height="148" as="geometry"/>
                </mxCell>
                <mxCell id="81" value="+ sugar_amount : double" style="text;html=1;strokeColor=none;fillColor=none;align=left;verticalAlign=middle;spacingLeft=4;spacingRight=4;overflow=hidden;rotatable=0;points=[[0,0.5],[1,0.5]];portConstraint=eastwest;whiteSpace=wrap;" parent="47" vertex="1">
                    <mxGeometry y="40" width="360" height="20" as="geometry"/>
                </mxCell>
                <mxCell id="50" value="" style="line;strokeWidth=1;fillColor=none;align=left;verticalAlign=middle;spacingTop=-1;spacingLeft=3;spacingRight=3;rotatable=0;labelPosition=right;points=[];portConstraint=eastwest;" parent="47" vertex="1">
                    <mxGeometry y="60" width="360" height="8" as="geometry"/>
                </mxCell>
                <mxCell id="79" value="+ CoffeDecorator(&amp;nbsp;&lt;span style=&quot;color: rgb(0, 0, 0);&quot;&gt;unique_ptr&amp;lt;Coffee&amp;gt;&lt;/span&gt;&amp;nbsp;) :&amp;nbsp;&lt;span style=&quot;color: rgb(0, 0, 0);&quot;&gt;&amp;nbsp;Coffee*&lt;/span&gt;&amp;nbsp;" style="text;html=1;strokeColor=none;fillColor=none;align=left;verticalAlign=middle;spacingLeft=4;spacingRight=4;overflow=hidden;rotatable=0;points=[[0,0.5],[1,0.5]];portConstraint=eastwest;whiteSpace=wrap;" parent="47" vertex="1">
                    <mxGeometry y="68" width="360" height="20" as="geometry"/>
                </mxCell>
                <mxCell id="51" value="+ getDiscription() : string" style="text;html=1;strokeColor=none;fillColor=none;align=left;verticalAlign=middle;spacingLeft=4;spacingRight=4;overflow=hidden;rotatable=0;points=[[0,0.5],[1,0.5]];portConstraint=eastwest;whiteSpace=wrap;" parent="47" vertex="1">
                    <mxGeometry y="88" width="360" height="20" as="geometry"/>
                </mxCell>
                <mxCell id="52" value="+ getCost() : double" style="text;html=1;strokeColor=none;fillColor=none;align=left;verticalAlign=middle;spacingLeft=4;spacingRight=4;overflow=hidden;rotatable=0;points=[[0,0.5],[1,0.5]];portConstraint=eastwest;whiteSpace=wrap;" parent="47" vertex="1">
                    <mxGeometry y="108" width="360" height="20" as="geometry"/>
                </mxCell>
                <mxCell id="78" value="+ ~CoffeDecorator( void&amp;nbsp;) : void&amp;nbsp;" style="text;html=1;strokeColor=none;fillColor=none;align=left;verticalAlign=middle;spacingLeft=4;spacingRight=4;overflow=hidden;rotatable=0;points=[[0,0.5],[1,0.5]];portConstraint=eastwest;whiteSpace=wrap;" parent="47" vertex="1">
                    <mxGeometry y="128" width="360" height="20" as="geometry"/>
                </mxCell>
                <mxCell id="58" style="html=1;endArrow=block;endFill=0;exitX=0.5;exitY=0;exitDx=0;exitDy=0;elbow=vertical;edgeStyle=orthogonalEdgeStyle;" parent="1" source="23" target="14" edge="1">
                    <mxGeometry relative="1" as="geometry"/>
                </mxCell>
            </root>
        </mxGraphModel>
    </diagram>
</mxfile>